# xmcd
#
# Track frame offsets: 
#        150
#        33575
#        44918
#        63897
#        74121
#        86131
#        104920
#        134003
#        160202
#        175920
#        205919
#        228203
#
# Disc length: 3164 seconds
#
# Revision: 1
# Processed by: cddbd v1.5.2PL0 Copyright (c) Steve Scherf et al.
# Submitted via: ExactAudioCopy v0.99pb4
#
DISCID=bc0c5a0c
DTITLE=Mikhail Rudy and Misha Alperin (pianos) - Double Dream
DYEAR=2004
DGENRE=Classical
TTITLE0=Schumann Vogel als Prophet (Waldszenen, op. 82, no. 7) and Lenny
TTITLE0=Tristano Requiem
TTITLE1=Misha Alperin Ostinato
TTITLE2=Harald Saeverud Revebjolle, op.22 (Tango)
TTITLE3=Debussy Etude pour les 8 doigts
TTITLE4=Chopin Mazurka, op.17 no.4
TTITLE5=Leos Janacek On an Overgrown Path
TTITLE6=Prokofiev Vision fugitive, op.22, no.10 and Misha Alperin Improv
TTITLE6=isation
TTITLE7=J.S. Bach Allemande (from French Suite No.2, BWV 813)
TTITLE8=Misha Alperin Prelude and Vivace
TTITLE9=Scriabin Etrangete, op.63, Prelude, op.67, Danse languide, op.
TTITLE9=51
TTITLE10=Prokofiev Toccata in C major, op.11
TTITLE11=Mozart Adagio for glass harmonica in C major, K.617a
EXTD=YEAR: 2004
EXTT0=
EXTT1=
EXTT2=
EXTT3=
EXTT4=
EXTT5=
EXTT6=
EXTT7=
EXTT8=
EXTT9=
EXTT10=
EXTT11=
PLAYORDER=
